<?xml version="1.0" encoding="utf-8"?>
<?xml-stylesheet type="text/xsl" href="rss1.xsl"?>
<rss version="2.0" xmlns:atom="http://www.w3.org/2005/Atom" xmlns:content="http://purl.org/rss/1.0/modules/content/" xmlns:dc="http://purl.org/dc/elements/1.1/" xmlns:media="http://search.yahoo.com/mrss/">
<channel>
 <title>Getty</title>
 <link>http://www.gettyimg.com/</link>
 <atom:link href="http://www.gettyimg.com/" rel="self" type="application/rss+xml" />

 
                <item>
                <title><![CDATA[【Requests】[REQ AUD] - Holly Valance Remixes]]></title>
                <link><![CDATA[https://sharemania.us/threads/holly-valance-remixes.242475/]]></link>
                <description><![CDATA[<article>
<blockquote class="messageText SelectQuoteContainer ugc baseHtml">
<b>Does anyone have the following remixes they could share:</b><br>
<br>
Naughty Girl (Ernie Lake Hustle Mix)<br>
Naughty Girl (E&amp;B Vocal Dub)<br>
Naughty Girl (Bare Brush Mix)<br>
Naughty Girl (K-Klass Solar Vocal Mix)<br>
Naughty Girl (K-Klass Detention Dub)<br>
Naughty Girl (E&amp;B Vocal Dub)<br>
<br>
Down Boy (Twin Club Remix)<br>
Down Boy (Blackout Remix)<br>
Down Boy (Twin Down Boy Dub)<br>
<br>
Kiss Kiss (Agent Sumo Remix)<br>
Kiss Kiss (Stargate R n B Remix)<br>
Kiss Kiss (Jah Wobble Remix)<br>
Kiss Kiss (Bklava Remix)<br>
Kiss Kiss (Bklava Dub)<br>
Kiss Kiss (Bklava Instrumental)<br>
Kiss Kiss (Jah Wobble Radio Remix)<br>
Kiss Kiss (Jah Wobble Remix)<br>
Kiss Kiss (Jah Wobble Dub)
<div class="messageTextEndMarker">&nbsp;</div>
</blockquote>
</article>]]></description>
                <author><![CDATA[rymc730]]></author>
                </item>

                
                <item>
                <title><![CDATA[【Apple Music】WEB-RiP - Chris Brown - Angel Numbers/Ten Toes [Apple HD Music Video]]]></title>
                <link><![CDATA[https://sharemania.us/threads/chris-brown-angel-numbers-ten-toes-apple-hd-music-video.242476/]]></link>
                <description><![CDATA[<article>
<blockquote class="messageText SelectQuoteContainer ugc baseHtml">
<span style="font-size: 22px"><b>Chris Brown - Angel Numbers/Ten Toes [Apple HD Music Video]</b></span><br>
<br>
<img src="https://imgur.com/0R6r2O1.jpg" class="bbCodeImage LbImage" alt="[​IMG]" data-url="https://imgur.com/0R6r2O1.jpg" style=""><br>
<br>
<div class="bbCodeBlock bbCodeCode">
<div class="type">Code:</div>
<pre>General
Format                         : MPEG-4
Codec ID                       : M4V  (isom/iso4/M4V /mp42)
File size                      : 376 MiB
Duration                       : 5 min 7 s
Overall bit rate mode          : Variable
Overall bit rate               : 10.3 Mb/s
Movie name                     : Angel Numbers / Ten Toes
Performer                      : Chris Brown
Genre                          : R&amp;B/Soul
ContentType                    : Music Video
Recorded date                  : UTC 2024-02-14 08:00:00
Encoded date                   : UTC 2024-03-27 15:52:03
Tagged date                    : UTC 2024-03-27 15:52:03
Copyright                      : ℗ (C) 2024 Chris Brown Entertainment, LLC, under exclusive license to RCA Records
Cover                          : Yes
Rating                         : Explicit
GenreID                        : 1615
AppleStoreCountry              : United Kingdom
AlbumTitleID                   : 95705522
AppleStoreCatalogID            : 1730971817

Video
ID                             : 2
Format                         : AVC
Format/Info                    : Advanced Video Codec
Format profile                 : High@L4
Format settings                : CABAC / 5 Ref Frames
Format settings, CABAC         : Yes
Format settings, Reference fra : 5 frames
Codec ID                       : avc1
Codec ID/Info                  : Advanced Video Coding
Duration                       : 5 min 7 s
Bit rate                       : 9 973 kb/s
Maximum bit rate               : 22.8 Mb/s
Width                          : 1 920 pixels
Height                         : 800 pixels
Display aspect ratio           : 2.40:1
Frame rate mode                : Constant
Frame rate                     : 23.976 (24000/1001) FPS
Color space                    : YUV
Chroma subsampling             : 4:2:0
Bit depth                      : 8 bits
Scan type                      : Progressive
Bits/(Pixel*Frame)             : 0.271
Stream size                    : 366 MiB (97%)
Title                          : Core Media Video
Encoded date                   : UTC 2024-02-15 18:01:27
Tagged date                    : UTC 2024-03-27 15:52:10
Color range                    : Limited
Color primaries                : BT.709
Transfer characteristics       : BT.709
Matrix coefficients            : BT.709
Codec configuration box        : avcC

Audio
ID                             : 1
Format                         : AAC LC
Format/Info                    : Advanced Audio Codec Low Complexity
Codec ID                       : mp4a-40-2
Duration                       : 5 min 7 s
Duration_LastFrame             : -6 ms
Bit rate mode                  : Variable
Bit rate                       : 265 kb/s
Maximum bit rate               : 350 kb/s
Channel(s)                     : 2 channels
Channel layout                 : L R
Sampling rate                  : 48.0 kHz
Frame rate                     : 46.875 FPS (1024 SPF)
Compression mode               : Lossy
Stream size                    : 9.63 MiB (3%)
Title                          : Core Media Audio
Encoded date                   : UTC 2024-02-15 17:50:57
Tagged date                    : UTC 2024-03-27 15:52:10
</pre>
</div>
<div class="bbCodeBlock bbCodeVfcHH HiddenContent">
<div class="attribution type">Hidden Content:</div>
<blockquote>You must reply before you can see the hidden data contained here.</blockquote>
</div>
<div class="messageTextEndMarker">&nbsp;</div>
</blockquote>
</article>]]></description>
                <author><![CDATA[abby0511]]></author>
                </item>

                
                <item>
                <title><![CDATA[【Apple Music】PACK - Girls Aloud - I Think We're Alone Now (x4 + H.264 versions) AM 1892p AAC2.0 4K H.265]]></title>
                <link><![CDATA[https://sharemania.us/threads/girls-aloud-i-think-were-alone-now-x4-h-264-versions-am-1892p-aac2-0-4k-h-265.242473/]]></link>
                <description><![CDATA[<article>
<blockquote class="messageText SelectQuoteContainer ugc baseHtml">
<div style="text-align: center"><img src="https://i.ibb.co/D9ggbGG/Girls-Aloud-I-Think-We-re-Alone-Now-AM-1892p-AAC2-0-4-K-H-265-mp4.png" class="bbCodeImage LbImage" alt="[​IMG]" data-url="https://i.ibb.co/D9ggbGG/Girls-Aloud-I-Think-We-re-Alone-Now-AM-1892p-AAC2-0-4-K-H-265-mp4.png" style=""> <br>
<img src="https://i.ibb.co/PQG6fsJ/Girls-Aloud-I-Think-We-re-Alone-Now-Tied-Up-Ending-AM-1892p-AAC2-0-4-K-H-265-mp4.png" class="bbCodeImage LbImage" alt="[​IMG]" data-url="https://i.ibb.co/PQG6fsJ/Girls-Aloud-I-Think-We-re-Alone-Now-Tied-Up-Ending-AM-1892p-AAC2-0-4-K-H-265-mp4.png" style=""> <br>
<img src="https://i.ibb.co/YkqCSKJ/Girls-Aloud-I-Think-We-re-Alone-Now-Kimberley-Ending-AM-1892p-AAC2-0-4-K-H-265-mp4.png" class="bbCodeImage LbImage" alt="[​IMG]" data-url="https://i.ibb.co/YkqCSKJ/Girls-Aloud-I-Think-We-re-Alone-Now-Kimberley-Ending-AM-1892p-AAC2-0-4-K-H-265-mp4.png" style=""> <br>
<img src="https://i.ibb.co/yy67kR6/Girls-Aloud-I-Think-We-re-Alone-Now-Cash-Ending-AM-1892p-AAC2-0-4-K-H-265-mp4.png" class="bbCodeImage LbImage" alt="[​IMG]" data-url="https://i.ibb.co/yy67kR6/Girls-Aloud-I-Think-We-re-Alone-Now-Cash-Ending-AM-1892p-AAC2-0-4-K-H-265-mp4.png" style=""> <br>
<img src="https://i.ibb.co/5RfQC5B/Girls-Aloud-I-Think-We-re-Alone-Now-AM-946p-AAC2-0-H-264-mp4.png" class="bbCodeImage LbImage" alt="[​IMG]" data-url="https://i.ibb.co/5RfQC5B/Girls-Aloud-I-Think-We-re-Alone-Now-AM-946p-AAC2-0-H-264-mp4.png" style=""> <br>
<img src="https://i.ibb.co/kcG8svS/Girls-Aloud-I-Think-We-re-Alone-Now-Tied-Up-Ending-AM-946p-AAC2-0-H-264-mp4.png" class="bbCodeImage LbImage" alt="[​IMG]" data-url="https://i.ibb.co/kcG8svS/Girls-Aloud-I-Think-We-re-Alone-Now-Tied-Up-Ending-AM-946p-AAC2-0-H-264-mp4.png" style=""> <br>
<img src="https://i.ibb.co/wynj8Y3/Girls-Aloud-I-Think-We-re-Alone-Now-Kimberley-Ending-AM-946p-AAC2-0-H-264-mp4.png" class="bbCodeImage LbImage" alt="[​IMG]" data-url="https://i.ibb.co/wynj8Y3/Girls-Aloud-I-Think-We-re-Alone-Now-Kimberley-Ending-AM-946p-AAC2-0-H-264-mp4.png" style=""> <br>
<img src="https://i.ibb.co/fHgswV4/Girls-Aloud-I-Think-We-re-Alone-Now-Cash-Ending-AM-946p-AAC2-0-H-264-mp4.png" class="bbCodeImage LbImage" alt="[​IMG]" data-url="https://i.ibb.co/fHgswV4/Girls-Aloud-I-Think-We-re-Alone-Now-Cash-Ending-AM-946p-AAC2-0-H-264-mp4.png" style=""> <br>
<div class="bbCodeBlock bbCodeVfcHH HiddenContent">
<div class="attribution type">Hidden Content:</div>
<blockquote>You must either reply or click 'Like' to see the hidden information contained here.</blockquote>
</div></div>
<div class="messageTextEndMarker">&nbsp;</div>
</blockquote>
</article>]]></description>
                <author><![CDATA[DarlingBeMyValentine]]></author>
                </item>

                
                <item>
                <title><![CDATA[【Apple Music】WEB-RiP - Havana &amp; Ioana Ignat - Vivere (1080p)]]></title>
                <link><![CDATA[https://sharemania.us/threads/havana-ioana-ignat-vivere-1080p.242472/]]></link>
                <description><![CDATA[<article>
<blockquote class="messageText SelectQuoteContainer ugc baseHtml">
Thanks<img src="styles/default/xenforo/smilies/secret_smile-48.png" class="mceSmilie" alt=":cool:" title="Cool    :cool:">
<div class="messageTextEndMarker">&nbsp;</div>
</blockquote>
</article>]]></description>
                <author><![CDATA[vitalya3]]></author>
                </item>

                
                <item>
                <title><![CDATA[【Helpdesk】360RA/MPEG-H 3D Decoder for MacOS]]></title>
                <link><![CDATA[https://sharemania.us/threads/360ra-mpeg-h-3d-decoder-for-macos.242474/]]></link>
                <description><![CDATA[<article>
<blockquote class="messageText SelectQuoteContainer ugc baseHtml">
<img src="https://i.postimg.cc/DZDQNgJd/Havana-Ioana-Ignat-Vivere-mp4.jpg" class="bbCodeImage LbImage" alt="[​IMG]" data-url="https://i.postimg.cc/DZDQNgJd/Havana-Ioana-Ignat-Vivere-mp4.jpg" style=""><br>
<br>
<div class="bbCodeBlock bbCodeCode">
<div class="type">Code:</div>
<pre>General
Complete name                  : G:\Новая папка\Havana &amp; Ioana Ignat - Vivere.mp4
Format                         : MPEG-4
Format profile                 : Base Media
Codec ID                       : isom (isom/iso2/avc1/mp41)
File size                      : 193 MiB
Duration                       : 3 min 49 s
Overall bit rate               : 7 078 kb/s
Frame rate                     : 25.000 FPS
Movie name                     : Vivere
Performer                      : Havana &amp; Ioana Ignat
Genre                          : Pop
ContentType                    : Music Video
Recorded date                  : 2021-08-24 07:00:00 UTC
Writing application            : Lavf56.30.100
Copyright                      : ℗ 2018 Cat Music / MediaPro Music / Green Eye Music / Global Records

Video
ID                             : 1
Format                         : AVC
Format/Info                    : Advanced Video Codec
Format profile                 : High@L4
Format settings                : CABAC / 5 Ref Frames
Format settings, CABAC         : Yes
Format settings, Reference fra : 5 frames
Format settings, Slice count   : 8 slices per frame
Codec ID                       : avc1
Codec ID/Info                  : Advanced Video Coding
Duration                       : 3 min 49 s
Bit rate                       : 6 818 kb/s
Width                          : 1 920 pixels
Height                         : 768 pixels
Display aspect ratio           : 2.500
Frame rate mode                : Constant
Frame rate                     : 25.000 FPS
Color space                    : YUV
Chroma subsampling             : 4:2:0
Bit depth                      : 8 bits
Scan type                      : Progressive
Bits/(Pixel*Frame)             : 0.185
Stream size                    : 186 MiB (96%)
Color range                    : Limited
Color primaries                : BT.709
Transfer characteristics       : BT.709
Matrix coefficients            : BT.709
Codec configuration box        : avcC

Audio
ID                             : 2
Format                         : AAC LC
Format/Info                    : Advanced Audio Codec Low Complexity
Codec ID                       : mp4a-40-2
Duration                       : 3 min 49 s
Bit rate mode                  : Constant
Bit rate                       : 256 kb/s
Channel(s)                     : 2 channels
Channel layout                 : L R
Sampling rate                  : 48.0 kHz
Frame rate                     : 46.875 FPS (1024 SPF)
Compression mode               : Lossy
Stream size                    : 6.98 MiB (4%)
Default                        : Yes
Alternate group                : 1

</pre>
</div>
<div class="bbCodeBlock bbCodeVfcHH HiddenContent">
<div class="attribution type">Hidden Content:</div>
<blockquote>You must either reply or click 'Like' to see the hidden information contained here.</blockquote>
</div>
<div class="messageTextEndMarker">&nbsp;</div>
</blockquote>
</article>]]></description>
                <author><![CDATA[DannyC]]></author>
                </item>

                </channel></rss>